<?xml version="1.0" encoding="UTF-8"?>
<svg id="Layer_1" data-name="Layer 1" xmlns="http://www.w3.org/2000/svg" width="682.64" height="200.04" viewBox="0 0 682.64 200.04">
  <defs>
    <style>
      .cls-1 {
        fill: #1864ab;
      }

      .cls-2 {
        fill: #f08c00;
      }

      .cls-3 {
        fill: #d0ebff;
      }
    </style>
  </defs>
  <path class="cls-1" d="M187.99,196.96c1.38-1.59,2.38-3.55,3.92-5.04,2.12-2.12,4.76-3.16,6.27-5.31,2.33-3.28,2.34-8.33.58-11.73-3.21-5.25-9.84-6.41-10.09-14.01-.76-12.1,14.05-10.64,10.94-23.78-.98-5.08-6.21-6.51-8.95-10.45-2.71-3.87-2.67-9.47.1-13.3,3.74-4.63,9.53-6.15,9.23-13.4.19-7.43-5.99-8.69-9.54-13.67-2.45-3.75-2.4-8.98.1-12.7,1.78-2.85,4.99-4.22,7.12-6.7,3.07-3.4,3.05-10.6-.1-13.95-2.34-2.6-5.84-4.1-7.49-7.36-2.39-4.23-1.75-9.95,1.59-13.5,2.13-2.31,4.82-3.53,6.39-5.77,2.47-3.57,2.6-8.75.37-12.47-1.52-2.53-4.73-3.66-6.88-6.07-3.53-4.85-6.19-8.57-12.98-7.61-6.42.29-7.97,7.42-13.31,10.06-4.7,2.39-10.83,1.06-14.15-3.01-1.43-1.62-2.48-3.45-4.13-4.83-3.37-3.03-10.45-3.05-13.82,0-3.99,4.21-6.72,9.42-13.49,9.02-9.92,0-9.72-11.53-19.57-11.35-10-.34-9.78,11.33-19.76,11.35C69.72,11.91,70.14.03,60.22.05c-9.74-.58-9.8,10.53-19.03,11.28C30.34,12.46,30.63,2,22.35.31c-3.56-.72-7.33.03-9.63,2.13-1.95,1.82-3.06,4.41-5.1,6.17-2.36,2.1-5.02,3.15-6.35,5.77-1.72,3.22-1.62,7.72,0,10.81,1.56,3.1,4.77,4.35,7.07,6.89,2.94,3.15,3.83,7.99,2.28,12-1.94,5.87-9.68,7.28-10.37,13.59-1.45,9.3,4.38,10.01,9.11,15.76,4.27,5.93,1.33,14.03-4.63,17.5-5.57,3.4-6.33,12.83-1.39,17.06,2.1,1.87,4.7,3.31,6.22,5.81,3.24,4.88,1.97,11.96-2.66,15.5-1.56,1.32-3.26,2.34-4.56,3.9-3.07,3.4-3.05,10.6.1,13.95,2.34,2.6,5.84,4.1,7.49,7.36,2.39,4.23,1.75,9.95-1.59,13.5-2.13,2.31-4.82,3.53-6.39,5.77-2.47,3.57-2.6,8.75-.37,12.47,1.41,2.29,3.96,3.32,6.16,5.34,2.01,1.78,3.1,4.38,5.09,6.15,3.42,2.88,9.07,3,12.9.72,4.55-3.3,6.33-9.59,13.44-9.76,11.05-.81,10.38,11.43,20.68,11.33,7.59.28,8.81-5.92,13.86-9.54,3.81-2.48,9.12-2.4,12.85.2,4.79,3.71,6.15,9.61,13.55,9.34,9.89.19,9.69-11.48,19.76-11.35,9.49-.33,9.75,8.91,17.03,10.92,3.08.86,6.63.44,9.32-1.31,2.41-1.55,3.64-4.36,6.04-6.57,3.56-3.34,9.26-3.98,13.5-1.59,2.96,1.5,4.64,4.71,6.77,6.94,3.65,3.91,11.94,4.03,15.36.02l.1-.11Z"/>
  <path class="cls-3" d="M155.99,123.08c0,4.01-.51,7.62-1.52,10.82s-2.36,6.03-4.02,8.48c-1.67,2.45-3.62,4.53-5.86,6.25-2.24,1.72-4.56,3.12-6.95,4.22-2.4,1.09-4.83,1.9-7.3,2.42-2.47.52-4.8.78-6.99.78H44.97v-20.31h78.36c3.91,0,6.94-1.15,9.1-3.44,2.16-2.29,3.24-5.36,3.24-9.22,0-1.88-.29-3.59-.86-5.16-.57-1.56-1.39-2.92-2.46-4.06-1.07-1.15-2.37-2.03-3.91-2.66-1.54-.62-3.24-.94-5.12-.94h-46.72c-3.28,0-6.82-.59-10.62-1.76-3.8-1.17-7.33-3.06-10.59-5.66-3.26-2.6-5.96-6.02-8.12-10.23-2.16-4.22-3.24-9.38-3.24-15.47s1.08-11.24,3.24-15.43c2.16-4.19,4.87-7.6,8.12-10.23,3.25-2.63,6.78-4.53,10.59-5.7,3.8-1.17,7.34-1.76,10.62-1.76h69.14v20.31h-69.14c-3.85,0-6.86,1.17-9.02,3.52-2.16,2.34-3.24,5.44-3.24,9.3s1.08,6.99,3.24,9.26c2.16,2.27,5.17,3.4,9.02,3.4h46.88c2.19.05,4.5.35,6.95.9,2.45.55,4.88,1.39,7.3,2.54,2.42,1.15,4.73,2.59,6.91,4.34,2.19,1.75,4.13,3.84,5.82,6.29,1.69,2.45,3.03,5.26,4.02,8.44.99,3.18,1.48,6.77,1.48,10.78Z"/>
  <g>
    <path class="cls-2" d="M307.31,90.4c0,2.81-.36,5.33-1.07,7.57-.72,2.24-1.66,4.22-2.83,5.93-1.17,1.71-2.55,3.17-4.13,4.38-1.58,1.2-3.21,2.19-4.9,2.95-1.69.77-3.4,1.33-5.15,1.7-1.74.36-3.38.55-4.93.55h-55.21v-14.22h55.21c2.75,0,4.89-.8,6.41-2.41,1.52-1.6,2.28-3.75,2.28-6.45,0-1.31-.2-2.52-.61-3.61-.4-1.09-.98-2.04-1.73-2.84-.75-.8-1.67-1.42-2.75-1.86-1.08-.44-2.28-.66-3.61-.66h-32.92c-2.31,0-4.81-.41-7.49-1.23-2.68-.82-5.17-2.14-7.46-3.96-2.29-1.82-4.2-4.21-5.72-7.16-1.52-2.95-2.28-6.56-2.28-10.83s.76-7.87,2.28-10.8c1.52-2.93,3.43-5.32,5.72-7.16,2.29-1.84,4.78-3.17,7.46-3.99,2.68-.82,5.17-1.23,7.49-1.23h48.71v14.22h-48.71c-2.72,0-4.83.82-6.36,2.46-1.52,1.64-2.28,3.81-2.28,6.51s.76,4.89,2.28,6.48c1.52,1.59,3.64,2.38,6.36,2.38h33.03c1.54.04,3.17.25,4.9.63,1.72.38,3.44.98,5.15,1.78,1.71.8,3.33,1.81,4.87,3.04,1.54,1.22,2.91,2.69,4.1,4.4,1.19,1.71,2.14,3.68,2.83,5.91.7,2.22,1.05,4.74,1.05,7.55Z"/>
    <path class="cls-2" d="M369.18,68.58h-24.99v44.9h-14.48v-44.9h-18.6v-14.22h18.6v-19.3h14.48v19.3h24.99v14.22Z"/>
    <path class="cls-2" d="M436.6,93.9c0,1.97-.35,4.09-1.05,6.37-.7,2.28-1.83,4.39-3.39,6.34-1.56,1.95-3.6,3.58-6.11,4.89-2.51,1.31-5.57,1.97-9.16,1.97h-25.81c-1.98,0-4.12-.35-6.41-1.04-2.29-.69-4.42-1.81-6.38-3.36-1.96-1.55-3.61-3.57-4.93-6.07-1.32-2.5-1.98-5.53-1.98-9.11,0-1.97.35-4.1,1.05-6.4.7-2.3,1.83-4.42,3.39-6.37,1.56-1.95,3.6-3.58,6.11-4.89,2.51-1.31,5.57-1.97,9.16-1.97h25.81v13.56h-25.81c-1.95,0-3.45.59-4.51,1.78-1.06,1.19-1.6,2.65-1.6,4.4,0,1.86.61,3.31,1.84,4.35,1.23,1.04,2.69,1.56,4.38,1.56h25.7c1.94,0,3.45-.58,4.51-1.75,1.06-1.17,1.6-2.62,1.6-4.38v-19.85c0-1.86-.58-3.34-1.73-4.43-1.16-1.09-2.61-1.64-4.38-1.64h-31.43v-13.51h31.43c1.98,0,4.12.35,6.41,1.04,2.29.69,4.42,1.81,6.38,3.36,1.96,1.55,3.61,3.57,4.93,6.07,1.32,2.5,1.98,5.53,1.98,9.11v19.96Z"/>
    <path class="cls-2" d="M501.94,113.48h-14.31v-39.21c0-1.86-.5-3.27-1.49-4.24-.99-.97-2.46-1.45-4.4-1.45h-18.6v44.9h-14.31v-52.06c0-.98.18-1.9.55-2.76.37-.86.88-1.6,1.54-2.24.66-.64,1.43-1.14,2.31-1.5.88-.36,1.82-.55,2.81-.55h25.81c1.98,0,4.11.35,6.38,1.04,2.27.69,4.44,1.8,6.5,3.34v-4.38h19.37c1.36,0,2.79.16,4.29.46,1.5.31,3,.79,4.49,1.45s2.91,1.5,4.27,2.54c1.36,1.04,2.55,2.3,3.58,3.77,1.03,1.48,1.85,3.18,2.48,5.11.62,1.93.94,4.12.94,6.56v39.21h-14.31v-39.21c0-1.86-.47-3.27-1.4-4.24-.94-.97-2.38-1.45-4.32-1.45h-12.88c.48,1.75.72,3.65.72,5.69v39.21Z"/>
    <path class="cls-2" d="M612.9,93.52c0,2.44-.31,4.64-.94,6.59-.62,1.95-1.45,3.66-2.48,5.14-1.03,1.48-2.22,2.73-3.58,3.77-1.36,1.04-2.78,1.89-4.27,2.54s-2.98,1.14-4.49,1.45c-1.5.31-2.94.46-4.29.46h-25.81v-14.22h25.81c1.91,0,3.34-.49,4.29-1.48s1.43-2.41,1.43-4.27v-19.14c0-1.97-.49-3.43-1.46-4.38-.97-.95-2.39-1.42-4.27-1.42h-25.7c-1.95,0-3.41.48-4.4,1.45-.99.97-1.49,2.38-1.49,4.24v57.7h-14.31v-57.7c0-2.44.31-4.63.94-6.56.62-1.93,1.46-3.64,2.5-5.11,1.05-1.48,2.25-2.73,3.6-3.77,1.36-1.04,2.78-1.89,4.27-2.54,1.49-.66,2.99-1.14,4.51-1.45,1.52-.31,2.94-.46,4.27-.46h25.81c2.46,0,4.66.31,6.6.93,1.95.62,3.66,1.44,5.15,2.46,1.49,1.02,2.75,2.21,3.8,3.55,1.05,1.35,1.9,2.76,2.56,4.24.66,1.48,1.15,2.96,1.46,4.46.31,1.5.47,2.92.47,4.27v19.25Z"/>
    <path class="cls-2" d="M682.64,93.52c0,2.44-.31,4.64-.94,6.59-.62,1.95-1.45,3.66-2.48,5.14-1.03,1.48-2.22,2.73-3.58,3.77s-2.78,1.89-4.27,2.54-2.99,1.14-4.51,1.45c-1.52.31-2.96.46-4.32.46h-38.75v-14.22h38.64c1.95,0,3.41-.49,4.4-1.48s1.49-2.41,1.49-4.27c-.18-3.79-2.11-5.69-5.78-5.69h-22.18c-3.16,0-5.84-.55-8.04-1.64s-3.99-2.46-5.37-4.1-2.37-3.41-2.97-5.3c-.61-1.9-.91-3.66-.91-5.3,0-3.17.57-5.84,1.71-8.01,1.14-2.17,2.57-3.93,4.29-5.28,1.72-1.35,3.6-2.32,5.62-2.93,2.02-.6,3.91-.9,5.67-.9h35.17v14.22h-35.06c-.73,0-1.31.08-1.73.25s-.73.38-.94.66-.32.57-.36.88c-.04.31-.05.61-.05.9.04.58.15,1.04.33,1.37s.41.57.69.71c.28.15.59.23.94.25.35.02.69.03,1.02.03h22.18c3.67,0,6.79.66,9.36,1.97,2.57,1.31,4.64,2.96,6.22,4.95,1.58,1.99,2.72,4.15,3.44,6.48.72,2.33,1.07,4.5,1.07,6.51Z"/>
  </g>
  <g>
    <path class="cls-1" d="M232.62,176.71h8.27c1.1,0,2.06.31,2.87.92.81.61,1.22,1.36,1.22,2.23v5.37c0,.88-.4,1.63-1.19,2.27-.8.64-1.76.96-2.89.96h-8.37c-1.14,0-2.1-.31-2.89-.94-.8-.63-1.19-1.36-1.19-2.22v-5.45c0-.88.41-1.62,1.22-2.23.81-.61,1.8-.92,2.97-.92Z"/>
    <path class="cls-1" d="M300.14,146.7h13.57c1.13,0,2.1.31,2.89.92.79.61,1.19,1.36,1.19,2.23,0,.93-.43,1.7-1.29,2.31-.86.61-1.79.92-2.8.92h-12.96c-1.27-.01-2.37.45-3.31,1.37l-11.46,11.39c-.97.9-1.45,2.15-1.45,3.76v17.47c0,.9.4,1.67,1.19,2.29.79.63,1.76.94,2.89.94h16.64c1.1,0,2.06-.31,2.87-.94s1.22-1.36,1.22-2.22v-6.84h-8.46c-1.17,0-2.14-.31-2.92-.92-.78-.61-1.17-1.36-1.17-2.23s.39-1.62,1.17-2.23c.78-.61,1.75-.92,2.92-.92h16.64v13.15c0,2.6-1.2,4.83-3.6,6.69s-5.29,2.78-8.66,2.78h-16.64c-3.41,0-6.32-.93-8.73-2.78-2.42-1.85-3.62-4.08-3.62-6.69v-17.46c0-3.13,1.09-5.77,3.26-7.92l12.06-11.83c.88-.9,2.1-1.66,3.67-2.29,1.57-.63,3.2-.94,4.89-.94Z"/>
    <path class="cls-1" d="M336.87,192.22l16.46-43.17c.66-1.56,2.03-2.35,4.13-2.35s3.31.66,3.84,1.99l16.3,43.83c.13.33.19.64.19.94,0,.88-.39,1.62-1.17,2.23-.78.61-1.67.92-2.67.92-2.14,0-3.5-.76-4.08-2.29l-3.23-8.56h-18.71l-3.56,9.17c-.1.4-.51.78-1.22,1.14-.72.36-1.5.54-2.35.54-1.21,0-2.2-.31-2.98-.94-.78-.63-1.17-1.39-1.17-2.29,0-.38.08-.76.24-1.16ZM357.4,161.31l-7.01,18.07h13.83l-6.82-18.07Z"/>
    <path class="cls-1" d="M396.81,196.62v-46.76c0-.85.4-1.59,1.22-2.22.81-.63,1.77-.94,2.87-.94s2.06.31,2.87.94c.81.63,1.22,1.36,1.22,2.22v40.45h28.9c1.13,0,2.12.31,2.94.92.83.61,1.24,1.36,1.24,2.23s-.41,1.62-1.24,2.23c-.83.61-1.81.92-2.94.92h-37.07Z"/>
    <path class="cls-1" d="M456.99,196.62v-46.76c0-.85.4-1.59,1.22-2.22.81-.63,1.77-.94,2.87-.94s2.06.31,2.87.94c.81.63,1.22,1.36,1.22,2.22v40.45h28.9c1.13,0,2.12.31,2.94.92.83.61,1.24,1.36,1.24,2.23s-.41,1.62-1.24,2.23c-.83.61-1.81.92-2.94.92h-37.07Z"/>
    <path class="cls-1" d="M554.24,153.09h-28.9v15.36h12.45c1.1,0,2.06.31,2.87.94.81.63,1.22,1.36,1.22,2.22,0,.9-.4,1.67-1.19,2.29-.8.63-1.76.94-2.89.94h-12.45v15.47h28.99c1.1,0,2.06.31,2.87.92.81.61,1.22,1.36,1.22,2.23s-.41,1.62-1.24,2.23c-.83.61-1.81.92-2.94.92h-37.07v-49.91h37.07c1.13,0,2.12.32,2.94.96s1.24,1.4,1.24,2.27-.41,1.59-1.24,2.22c-.83.63-1.81.94-2.94.94Z"/>
    <path class="cls-1" d="M577.44,193.46v-46.76h28.9c3.34,0,6.22.94,8.64,2.82,2.42,1.88,3.62,4.12,3.62,6.72v3.61c0,2.63-1.2,4.88-3.6,6.74-2.4,1.87-5.29,2.8-8.66,2.8h-5.21l16.69,22.16c.52.65.78,1.3.78,1.95,0,.85-.42,1.58-1.27,2.2-.85.61-1.81.92-2.88.92-1.63,0-2.86-.55-3.7-1.68l-19.13-25.55h-5.9v24.07c0,.88-.41,1.62-1.24,2.23-.83.61-1.81.92-2.94.92s-2.1-.31-2.89-.92c-.8-.61-1.19-1.36-1.19-2.23ZM585.61,163.08h20.72c1.13,0,2.1-.31,2.89-.92.79-.61,1.19-1.36,1.19-2.23v-3.68c0-.88-.4-1.62-1.19-2.23-.8-.61-1.76-.92-2.89-.92h-20.72v9.99Z"/>
    <path class="cls-1" d="M662.33,172.66v20.8c0,.88-.41,1.62-1.22,2.24-.81.61-1.77.92-2.87.92-1.17,0-2.16-.31-2.97-.92-.81-.61-1.22-1.36-1.22-2.24v-20.78l-16.44-16.07v-6.69c0-.9.4-1.66,1.19-2.29.79-.63,1.76-.94,2.89-.94s2.12.32,2.94.96c.83.64,1.24,1.4,1.24,2.29v4.34l12.26,12.16,12.45-12.15v-4.38c0-.87.4-1.63,1.22-2.27.81-.64,1.77-.96,2.87-.96s2.02.29,2.85.88c.83.59,1.24,1.37,1.24,2.35v6.61l-16.44,16.12Z"/>
  </g>
</svg>